<?xml version="1.0" encoding="UTF-8" standalone="no"?>
<!-- Created with Inkscape (http://www.inkscape.org/) -->

<svg
   width="64"
   height="64"
   viewBox="0 0 64.000001 64.000001"
   id="svg4230"
   version="1.1"
   xmlns="http://www.w3.org/2000/svg"
   xmlns:svg="http://www.w3.org/2000/svg"
   xmlns:rdf="http://www.w3.org/1999/02/22-rdf-syntax-ns#"
   xmlns:cc="http://creativecommons.org/ns#"
   xmlns:dc="http://purl.org/dc/elements/1.1/">
  <defs
     id="defs4232" />
  <metadata
     id="metadata4235">
    <rdf:RDF>
      <cc:Work
         rdf:about="">
        <dc:format>image/svg+xml</dc:format>
        <dc:type
           rdf:resource="http://purl.org/dc/dcmitype/StillImage" />
        <cc:license
           rdf:resource="http://creativecommons.org/licenses/by-sa/4.0/" />
      </cc:Work>
      <cc:License
         rdf:about="http://creativecommons.org/licenses/by-sa/4.0/">
        <cc:permits
           rdf:resource="http://creativecommons.org/ns#Reproduction" />
        <cc:permits
           rdf:resource="http://creativecommons.org/ns#Distribution" />
        <cc:requires
           rdf:resource="http://creativecommons.org/ns#Notice" />
        <cc:requires
           rdf:resource="http://creativecommons.org/ns#Attribution" />
        <cc:permits
           rdf:resource="http://creativecommons.org/ns#DerivativeWorks" />
        <cc:requires
           rdf:resource="http://creativecommons.org/ns#ShareAlike" />
      </cc:License>
    </rdf:RDF>
  </metadata>
  <g
     id="layer1"
     transform="translate(0,-1004.3622)">
    <g
       id="g1">
      <path
         style="fill:#ffffff;fill-opacity:1;fill-rule:evenodd;stroke:#ffffff;stroke-width:2.5;stroke-linecap:round;stroke-linejoin:miter;stroke-miterlimit:4;stroke-dasharray:none;stroke-opacity:1"
         d="m 53.410955,1015.2372 -4.25,5.5"
         id="path4181" />
      <path
         id="path4945"
         d="m 10.589045,1015.2372 4.25,5.5"
         style="fill:#ffffff;fill-opacity:1;fill-rule:evenodd;stroke:#ffffff;stroke-width:2.5;stroke-linecap:round;stroke-linejoin:miter;stroke-miterlimit:4;stroke-dasharray:none;stroke-opacity:1" />
      <path
         id="rect4144"
         style="fill:#ffffff;fill-opacity:1;stroke:none;stroke-width:3;stroke-linecap:round;stroke-linejoin:miter;stroke-miterlimit:3;stroke-dasharray:none;stroke-dashoffset:0;stroke-opacity:1"
         d="m 16.00011,1018.7372 c -1.662,0 -3,1.338 -3,3 v 7 c 0,1.662 1.338,3 3,3 h 32 c 1.662,0 3,-1.338 3,-3 v -7 c 0,-1.662 -1.338,-3 -3,-3 z m 6.375,3.75 a 3.375,3.375 0 0 1 3.375,3.375 3.375,3.375 0 0 1 -3.375,3.375 3.375,3.375 0 0 1 -3.375,-3.375 3.375,3.375 0 0 1 3.375,-3.375 z m 19.5,0 a 3.375,3.375 0 0 1 3.375,3.375 3.375,3.375 0 0 1 -3.375,3.375 3.375,3.375 0 0 1 -3.375,-3.375 3.375,3.375 0 0 1 3.375,-3.375 z" />
      <path
         id="rect4146"
         style="fill:#ffffff;fill-opacity:1;stroke:none;stroke-width:3;stroke-linecap:round;stroke-linejoin:miter;stroke-miterlimit:3;stroke-dasharray:none;stroke-dashoffset:0;stroke-opacity:1"
         d="m 16.00011,1032.7372 c -1.662,0 -3,1.338 -3,3 v 20 c 0,1.662 1.338,3 3,3 h 32 c 1.662,0 3,-1.338 3,-3 v -20 c 0,-1.662 -1.338,-3 -3,-3 z m 16,2.5 c 5.787737,0 10.5,4.7123 10.5,10.5 0,5.7878 -4.712263,10.5 -10.5,10.5 -5.787737,0 -10.5,-4.7122 -10.5,-10.5 0,-5.7877 4.712263,-10.5 10.5,-10.5 z m 0,1.9004 c -4.760901,0 -8.599609,3.8387 -8.599609,8.5996 0,4.7609 3.838708,8.6016 8.599609,8.6016 4.760901,0 8.599609,-3.8407 8.599609,-8.6016 0,-4.7609 -3.838708,-8.5996 -8.599609,-8.5996 z m 0,2.3496 c 3.434013,0 6.25,2.816 6.25,6.25 0,3.434 -2.815987,6.25 -6.25,6.25 -2.95209,0 -5.441737,-2.0839 -6.083984,-4.8496 h 3.154296 c 0.518438,1.0969 1.622307,1.8496 2.929688,1.8496 1.812692,0 3.25,-1.4373 3.25,-3.25 0,-1.8127 -1.437308,-3.25 -3.25,-3.25 -1.225202,0 -2.265997,0.665 -2.820312,1.6504 h -3.212891 c 0.713414,-2.6657 3.152541,-4.6504 6.033203,-4.6504 z" />
    </g>
  </g>
</svg>
